<svg id="calc" viewBox="0 0 16 21" xmlns="http://www.w3.org/2000/svg">
<path fill-rule="evenodd" clip-rule="evenodd" d="M3.2 0.724854C2.56348 0.724854 1.95303 0.980219 1.50294 1.43477C1.05286 1.88933 0.799999 2.50583 0.799999 3.14867V17.6916C0.799999 18.3344 1.05286 18.9509 1.50294 19.4055C1.95303 19.86 2.56348 20.1154 3.2 20.1154H12.8C13.4365 20.1154 14.047 19.86 14.4971 19.4055C14.9471 18.9509 15.2 18.3344 15.2 17.6916V3.14867C15.2 2.50583 14.9471 1.88933 14.4971 1.43477C14.047 0.980219 13.4365 0.724854 12.8 0.724854H3.2ZM4.4 3.14867C4.08174 3.14867 3.77652 3.27635 3.55147 3.50363C3.32643 3.7309 3.2 4.03916 3.2 4.36058C3.2 4.68199 3.32643 4.99025 3.55147 5.21752C3.77652 5.4448 4.08174 5.57248 4.4 5.57248H11.6C11.9183 5.57248 12.2235 5.4448 12.4485 5.21752C12.6736 4.99025 12.8 4.68199 12.8 4.36058C12.8 4.03916 12.6736 3.7309 12.4485 3.50363C12.2235 3.27635 11.9183 3.14867 11.6 3.14867H4.4ZM11.6 11.632C11.9183 11.632 12.2235 11.7597 12.4485 11.987C12.6736 12.2143 12.8 12.5225 12.8 12.8439V16.4796C12.8 16.8011 12.6736 17.1093 12.4485 17.3366C12.2235 17.5639 11.9183 17.6916 11.6 17.6916C11.2817 17.6916 10.9765 17.5639 10.7515 17.3366C10.5264 17.1093 10.4 16.8011 10.4 16.4796V12.8439C10.4 12.5225 10.5264 12.2143 10.7515 11.987C10.9765 11.7597 11.2817 11.632 11.6 11.632ZM8 15.2677C7.68174 15.2677 7.37652 15.3954 7.15147 15.6227C6.92643 15.85 6.8 16.1582 6.8 16.4796C6.8 16.8011 6.92643 17.1093 7.15147 17.3366C7.37652 17.5639 7.68174 17.6916 8 17.6916H8.012C8.33026 17.6916 8.63548 17.5639 8.86053 17.3366C9.08557 17.1093 9.212 16.8011 9.212 16.4796C9.212 16.1582 9.08557 15.85 8.86053 15.6227C8.63548 15.3954 8.33026 15.2677 8.012 15.2677H8ZM3.2 16.4796C3.2 16.1582 3.32643 15.85 3.55147 15.6227C3.77652 15.3954 4.08174 15.2677 4.4 15.2677H4.412C4.73026 15.2677 5.03548 15.3954 5.26053 15.6227C5.48557 15.85 5.612 16.1582 5.612 16.4796C5.612 16.8011 5.48557 17.1093 5.26053 17.3366C5.03548 17.5639 4.73026 17.6916 4.412 17.6916H4.4C4.08174 17.6916 3.77652 17.5639 3.55147 17.3366C3.32643 17.1093 3.2 16.8011 3.2 16.4796ZM4.4 11.632C4.08174 11.632 3.77652 11.7597 3.55147 11.987C3.32643 12.2143 3.2 12.5225 3.2 12.8439C3.2 13.1653 3.32643 13.4736 3.55147 13.7009C3.77652 13.9282 4.08174 14.0558 4.4 14.0558H4.412C4.73026 14.0558 5.03548 13.9282 5.26053 13.7009C5.48557 13.4736 5.612 13.1653 5.612 12.8439C5.612 12.5225 5.48557 12.2143 5.26053 11.987C5.03548 11.7597 4.73026 11.632 4.412 11.632H4.4ZM6.8 12.8439C6.8 12.5225 6.92643 12.2143 7.15147 11.987C7.37652 11.7597 7.68174 11.632 8 11.632H8.012C8.33026 11.632 8.63548 11.7597 8.86053 11.987C9.08557 12.2143 9.212 12.5225 9.212 12.8439C9.212 13.1653 9.08557 13.4736 8.86053 13.7009C8.63548 13.9282 8.33026 14.0558 8.012 14.0558H8C7.68174 14.0558 7.37652 13.9282 7.15147 13.7009C6.92643 13.4736 6.8 13.1653 6.8 12.8439ZM11.6 7.9963C11.2817 7.9963 10.9765 8.12398 10.7515 8.35126C10.5264 8.57853 10.4 8.88679 10.4 9.20821C10.4 9.52962 10.5264 9.83788 10.7515 10.0652C10.9765 10.2924 11.2817 10.4201 11.6 10.4201H11.612C11.9303 10.4201 12.2355 10.2924 12.4605 10.0652C12.6856 9.83788 12.812 9.52962 12.812 9.20821C12.812 8.88679 12.6856 8.57853 12.4605 8.35126C12.2355 8.12398 11.9303 7.9963 11.612 7.9963H11.6ZM6.8 9.20821C6.8 8.88679 6.92643 8.57853 7.15147 8.35126C7.37652 8.12398 7.68174 7.9963 8 7.9963H8.012C8.33026 7.9963 8.63548 8.12398 8.86053 8.35126C9.08557 8.57853 9.212 8.88679 9.212 9.20821C9.212 9.52962 9.08557 9.83788 8.86053 10.0652C8.63548 10.2924 8.33026 10.4201 8.012 10.4201H8C7.68174 10.4201 7.37652 10.2924 7.15147 10.0652C6.92643 9.83788 6.8 9.52962 6.8 9.20821ZM4.4 7.9963C4.08174 7.9963 3.77652 8.12398 3.55147 8.35126C3.32643 8.57853 3.2 8.88679 3.2 9.20821C3.2 9.52962 3.32643 9.83788 3.55147 10.0652C3.77652 10.2924 4.08174 10.4201 4.4 10.4201H4.412C4.73026 10.4201 5.03548 10.2924 5.26053 10.0652C5.48557 9.83788 5.612 9.52962 5.612 9.20821C5.612 8.88679 5.48557 8.57853 5.26053 8.35126C5.03548 8.12398 4.73026 7.9963 4.412 7.9963H4.4Z" fill="#F08723"/>
</svg>