<svg id="copy" viewBox="0 0 24 24"  xmlns="http://www.w3.org/2000/svg">
    <path d="M7.52136 2.79704C8.01852 2.2867 8.69282 2 9.39591 2H14.1492C14.8522 2.00015 15.5264 2.28696 16.0235 2.79733L19.2233 6.0819C19.7204 6.59212 19.9998 7.28417 20 8.00584V15.6063C20 16.3281 19.7207 17.0202 19.2235 17.5306C18.7264 18.0409 18.0521 18.3276 17.349 18.3276H9.39591C8.69282 18.3276 8.01852 18.0409 7.52136 17.5306C7.02419 17.0202 6.74489 16.3281 6.74489 15.6063V4.72127C6.74489 3.99954 7.02419 3.30738 7.52136 2.79704Z" fill="#C2CCD9"/>
    <path d="M3.77647 6.46943C3.2793 6.97976 3 7.67193 3 8.39365V19.2787C3 20.0005 3.2793 20.6926 3.77647 21.203C4.27363 21.7133 4.94793 22 5.65102 22H13.6041C14.3072 22 14.9815 21.7133 15.4786 21.203C15.9758 20.6926 16.2551 20.0005 16.2551 19.2787H7.86021C6.64011 19.2787 5.65102 18.2634 5.65102 17.011V5.67238C4.94793 5.67238 4.27363 5.95909 3.77647 6.46943Z" fill="#C2CCD9"/>
    </svg>