<svg id="phone" viewBox="0 0 24 24"  xmlns="http://www.w3.org/2000/svg">
    <path d="M2.39996 3.60002C2.39996 3.28176 2.52639 2.97654 2.75144 2.7515C2.97648 2.52645 3.2817 2.40002 3.59996 2.40002H6.18356C6.46761 2.40016 6.7424 2.50104 6.95906 2.68474C7.17571 2.86843 7.32018 3.12302 7.36676 3.40322L8.25476 8.72522C8.29719 8.97869 8.25713 9.23907 8.14048 9.46806C8.02383 9.69705 7.83674 9.88254 7.60676 9.99723L5.74916 10.9248C6.41529 12.5756 7.40736 14.0752 8.66609 15.3339C9.92482 16.5926 11.4244 17.5847 13.0752 18.2508L14.004 16.3932C14.1186 16.1635 14.3039 15.9765 14.5326 15.8599C14.7614 15.7433 15.0215 15.7031 15.2748 15.7452L20.5968 16.6332C20.877 16.6798 21.1316 16.8243 21.3153 17.0409C21.4989 17.2576 21.5998 17.5324 21.6 17.8164V20.4C21.6 20.7183 21.4735 21.0235 21.2485 21.2486C21.0234 21.4736 20.7182 21.6 20.4 21.6H18C9.38396 21.6 2.39996 14.616 2.39996 6.00002V3.60002Z" fill="#F08723"/>
</svg>