<svg display="none" xmlns="http://www.w3.org/2000/svg">
    <symbol id="watsapp"  viewBox="0 0 13 13">
        <path d="M10.9096 2.09041C9.86946 1.03847 8.48749 0.393083 7.0132 0.270756C5.53891 0.148429 4.06947 0.557228 2.87017 1.42335C1.67086 2.28946 0.820738 3.55583 0.473274 4.9938C0.12581 6.43177 0.303905 7.94658 0.975406 9.26475L0.317512 12.4588C0.310467 12.4907 0.310194 12.5238 0.31671 12.5558C0.323227 12.5878 0.336387 12.6181 0.355341 12.6447C0.382484 12.685 0.421284 12.716 0.466549 12.7336C0.511814 12.7513 0.561385 12.7547 0.60863 12.7434L3.73363 12.0016C5.04819 12.6555 6.55213 12.8217 7.97775 12.4707C9.40338 12.1196 10.6582 11.2741 11.5188 10.0846C12.3795 8.89509 12.7901 7.43878 12.6777 5.97489C12.5652 4.51099 11.9369 3.1345 10.9047 2.09041H10.9096ZM9.93264 9.88153C9.21327 10.5996 8.28693 11.0742 7.28386 11.2385C6.28079 11.4029 5.25144 11.2487 4.34054 10.7976L3.90304 10.5805L1.98363 11.0345V11.0098L2.38824 9.07396L2.17442 8.65291C1.70867 7.73954 1.54422 6.7021 1.70466 5.68947C1.86511 4.67683 2.34222 3.74105 3.06751 3.0164C3.97821 2.10664 5.21282 1.59563 6.50008 1.59563C7.78733 1.59563 9.02194 2.10664 9.93264 3.0164L9.95403 3.046C10.8529 3.95865 11.3547 5.18953 11.35 6.47049C11.3454 7.75145 10.8348 8.97868 9.92935 9.88482L9.93264 9.88153Z" />
        <path d="M9.76312 8.47359C9.52792 8.84365 9.15457 9.29595 8.68911 9.40944C7.86674 9.60681 6.61509 9.40944 5.04765 7.96043L5.02792 7.94234C3.66443 6.66931 3.30259 5.60846 3.38318 4.768C3.43088 4.28938 3.8289 3.85846 4.16443 3.57557C4.21778 3.53059 4.2809 3.49871 4.34877 3.48248C4.41663 3.46625 4.48735 3.46613 4.55528 3.48211C4.6232 3.49809 4.68645 3.52974 4.73995 3.57452C4.79346 3.61931 4.83575 3.67599 4.86344 3.74004L5.36838 4.88149C5.40134 4.95496 5.41371 5.03602 5.40414 5.11598C5.39458 5.19594 5.36346 5.2718 5.3141 5.33543L5.05752 5.66438C5.00419 5.73266 4.97242 5.81529 4.96627 5.90171C4.96012 5.98813 4.97986 6.07443 5.02298 6.14958C5.2667 6.5088 5.55832 6.83306 5.88976 7.11339C6.24636 7.45658 6.65078 7.74631 7.09042 7.97359C7.17066 8.00593 7.25871 8.01365 7.34336 7.99579C7.42801 7.97792 7.50542 7.93527 7.56575 7.87326L7.86016 7.57392C7.91618 7.51368 7.98778 7.47011 8.06703 7.44805C8.14627 7.42599 8.23008 7.42629 8.30917 7.44892L9.50983 7.79267C9.57787 7.81203 9.64039 7.84713 9.69234 7.89514C9.74429 7.94314 9.78421 8.0027 9.80887 8.069C9.83353 8.1353 9.84224 8.20647 9.83429 8.27676C9.82635 8.34704 9.80196 8.41447 9.76312 8.47359Z" />
            </symbol>
</svg>
